# Blender v2.79 (sub 0) OBJ File: ''
# www.blender.org
mtllib Diamond.mtl
o Cylinder
v -0.000000 -1.259411 -0.000000
v 0.000000 0.235125 -1.000000
v -0.420812 0.592144 0.242956
v 0.866025 0.235125 -0.500000
v -0.000000 0.592144 0.485912
v 0.866025 0.235125 0.500000
v 0.420812 0.592144 0.242956
v -0.000000 0.235125 1.000000
v 0.420812 0.592144 -0.242956
v -0.866025 0.235125 0.500000
v -0.000000 0.592144 -0.485912
v -0.866025 0.235125 -0.500000
v -0.420812 0.592144 -0.242956
vn 0.4326 -0.5014 -0.7493
vn 0.8652 -0.5014 0.0000
vn 0.4326 -0.5014 0.7493
vn -0.4326 -0.5014 0.7493
vn 0.3128 0.7801 0.5418
vn -0.8652 -0.5014 0.0000
vn -0.4326 -0.5014 -0.7493
vn 0.6256 0.7801 0.0000
vn -0.3128 0.7801 0.5418
vn -0.3128 0.7801 -0.5418
vn 0.0000 1.0000 0.0000
vn -0.6256 0.7801 0.0000
vn 0.3128 0.7801 -0.5418
usemtl None
s off
f 1//1 2//1 4//1
f 1//2 4//2 6//2
f 1//3 6//3 8//3
f 1//4 8//4 10//4
f 8//5 6//5 7//5 5//5
f 1//6 10//6 12//6
f 1//7 12//7 2//7
f 6//8 4//8 9//8 7//8
f 10//9 8//9 5//9 3//9
f 2//10 12//10 13//10 11//10
f 9//11 11//11 13//11 3//11 5//11 7//11
f 12//12 10//12 3//12 13//12
f 4//13 2//13 11//13 9//13
